HIERARCHY
ROOT Hips
{
	OFFSET 0.000000 0.000000 0.000000
	CHANNELS 6 Xposition Yposition Zposition Zrotation Yrotation Xrotation 
	JOINT LHipJoint
	{
		OFFSET 0.000000 0.000000 0.000000
		CHANNELS 3 Zrotation Yrotation Xrotation
		JOINT LeftUpLeg
		{
			OFFSET 1.363060 -1.794630 0.839290
			CHANNELS 3 Zrotation Yrotation Xrotation
			JOINT LeftLeg
			{
				OFFSET 2.448110 -6.726130 0.000000
				CHANNELS 3 Zrotation Yrotation Xrotation
				JOINT LeftFoot
				{
					OFFSET 2.562200 -7.039590 0.000000
					CHANNELS 3 Zrotation Yrotation Xrotation
					JOINT LeftToeBase
					{
						OFFSET 0.157640 -0.433110 2.322550
						CHANNELS 3 Zrotation Yrotation Xrotation
						End Site
						{
							OFFSET 0.000000 0.000000 0.000000
						}
					}
				}
			}
		}
	}
	JOINT RHipJoint
	{
		OFFSET 0.000000 0.000000 0.000000
		CHANNELS 3 Zrotation Yrotation Xrotation
		JOINT RightUpLeg
		{
			OFFSET -1.305520 -1.794630 0.839290
			CHANNELS 3 Zrotation Yrotation Xrotation
			JOINT RightLeg
			{
				OFFSET -2.542530 -6.985550 0.000000
				CHANNELS 3 Zrotation Yrotation Xrotation
				JOINT RightFoot
				{
					OFFSET -2.568260 -7.056230 0.000000
					CHANNELS 3 Zrotation Yrotation Xrotation
					JOINT RightToeBase
					{
						OFFSET -0.164730 -0.452590 2.363150
						CHANNELS 3 Zrotation Yrotation Xrotation
						End Site
						{
							OFFSET 0.000000 0.000000 0.000000
						}
					}
				}
			}
		}
	}
	JOINT LowerBack
	{
		OFFSET 0.000000 0.000000 0.000000
		CHANNELS 3 Zrotation Yrotation Xrotation
		JOINT Spine
		{
			OFFSET 0.028270 2.035590 -0.193380
			CHANNELS 3 Zrotation Yrotation Xrotation
			JOINT Spine1
			{
				OFFSET 0.056720 2.048850 -0.042750
				CHANNELS 3 Zrotation Yrotation Xrotation
				JOINT Neck
				{
					OFFSET 0.000000 0.000000 0.000000
					CHANNELS 3 Zrotation Yrotation Xrotation
					JOINT Neck1
					{
						OFFSET -0.054170 1.746240 0.172020
						CHANNELS 3 Zrotation Yrotation Xrotation
						JOINT Head
						{
							OFFSET 0.104070 1.761360 -0.123970
							CHANNELS 3 Zrotation Yrotation Xrotation
							End Site
							{
								OFFSET 0.000000 0.000000 0.000000
							}
						}
					}
				}
				JOINT LeftShoulder
				{
					OFFSET 0.000000 0.000000 0.000000
					CHANNELS 3 Zrotation Yrotation Xrotation
					JOINT LeftArm
					{
						OFFSET 3.362410 1.200890 -0.311210
						CHANNELS 3 Zrotation Yrotation Xrotation
						JOINT LeftForeArm
						{
							OFFSET 4.983000 -0.000000 -0.000000
							CHANNELS 3 Zrotation Yrotation Xrotation
							JOINT LeftHand
							{
								OFFSET 3.483560 -0.000000 -0.000000
								CHANNELS 3 Zrotation Yrotation Xrotation
								JOINT LeftFingerBase
								{
									OFFSET 0.000000 0.000000 0.000000
									CHANNELS 3 Zrotation Yrotation Xrotation
									JOINT LeftHandIndex1
									{
										OFFSET 0.715260 -0.000000 -0.000000
										CHANNELS 3 Zrotation Yrotation Xrotation
										End Site
										{
											OFFSET 0.000000 0.000000 0.000000
										}
									}
								}
								JOINT LThumb
								{
									OFFSET 0.000000 0.000000 0.000000
									CHANNELS 3 Zrotation Yrotation Xrotation
									End Site
									{
										OFFSET 0.000000 0.000000 0.000000
									}
								}
							}
						}
					}
				}
				JOINT RightShoulder
				{
					OFFSET 0.000000 0.000000 0.000000
					CHANNELS 3 Zrotation Yrotation Xrotation
					JOINT RightArm
					{
						OFFSET -3.136600 1.374050 -0.404650
						CHANNELS 3 Zrotation Yrotation Xrotation
						JOINT RightForeArm
						{
							OFFSET -5.241900 -0.000000 -0.000000
							CHANNELS 3 Zrotation Yrotation Xrotation
							JOINT RightHand
							{
								OFFSET -3.444170 -0.000000 -0.000000
								CHANNELS 3 Zrotation Yrotation Xrotation
								JOINT RightFingerBase
								{
									OFFSET 0.000000 0.000000 0.000000
									CHANNELS 3 Zrotation Yrotation Xrotation
									JOINT RightHandIndex1
									{
										OFFSET -0.622530 -0.000000 -0.000000
										CHANNELS 3 Zrotation Yrotation Xrotation
										End Site
										{
											OFFSET 0.000000 0.000000 0.000000
										}
									}
								}
								JOINT RThumb
								{
									OFFSET 0.000000 0.000000 0.000000
									CHANNELS 3 Zrotation Yrotation Xrotation
									End Site
									{
										OFFSET 0.000000 0.000000 0.000000
									}
								}
							}
						}
					}
				}
			}
		}
	}
}
MOTION
Frames: 5
Frame Time: 0.008333
9.123045 17.683089 2.335198 -178.432295 1.156579 174.157101 8.052974 0.803559 -0.563951 -28.868878 -17.398396 9.127209 -0.981822 6.862576 20.773578 -3.897618 19.475651 -17.062139 0.153900 -2.527600 -6.966200 -9.903461 -0.000495 -2.824325 37.395286 13.907289 10.395679 -0.428675 -7.410491 20.502875 3.088720 -22.930811 -27.043472 -1.115300 6.709100 -18.856500 2.253705 1.314411 5.099715 2.146127 2.329726 2.240757 -8.406645 1.002725 0.892261 7.830915 10.044218 1.485278 6.405264 11.405936 3.773510 -3.543300 5.322000 0.086900 7.510526 3.540490 -0.579106 -97.696940 0.298893 26.228904 13.343613 -15.611735 -2.675362 -2.104834 -3.018239 3.204125 18.617087 6.598041 3.659100 -7.125000 0.000000 0.000000 -5.630500 40.370400 0.645000 -10.794443 -6.007244 0.616945 105.623038 -5.992997 27.586420 -14.252260 21.498599 -4.117582 0.685732 2.424892 -17.719894 -16.900318 2.142218 0.017200 7.125000 0.000000 0.000000 6.495300 -30.002300 2.390800 
9.117704 17.684112 2.333834 -177.978219 1.213916 174.285770 8.039033 0.804462 -0.557763 -28.353168 -17.501015 8.833322 -0.927199 6.981559 21.115481 -3.882966 19.425968 -17.151338 0.162100 -2.593700 -7.149700 -9.921279 0.000049 -2.820285 37.821912 13.850768 10.414967 -0.370882 -7.299172 20.129584 3.124674 -22.972817 -26.863882 -1.103500 6.674700 -18.755100 2.800769 1.321901 4.962164 2.190243 2.349689 2.220186 -8.556352 1.010528 0.926796 7.850669 10.034952 1.478786 6.450492 11.390247 3.793232 -3.517100 5.316700 0.083800 7.523492 3.550105 -0.582277 -97.661863 0.332291 26.392990 13.338750 -15.616907 -2.681717 -2.073847 -3.048793 3.117990 18.488815 6.741913 3.690800 -7.125000 0.000000 0.000000 -5.791600 40.535500 0.640000 -10.798900 -6.022042 0.616793 105.643736 -6.025540 27.548297 -14.257014 21.520150 -4.123608 0.688973 2.419568 -17.710883 -16.893377 2.198485 -0.003300 7.125000 0.000000 0.000000 6.495600 -29.937500 2.401100 
9.117477 17.682634 2.334061 -177.923116 1.208570 174.297526 8.037353 0.812503 -0.560045 -28.251176 -17.417731 8.776420 -0.925211 6.974667 21.096946 -3.892962 19.410354 -16.994869 0.173100 -2.680300 -7.390000 -9.934879 -0.006139 -2.821968 37.891056 13.822285 10.336675 -0.377748 -7.327375 20.156837 3.450622 -23.827286 -26.147932 -1.471600 7.665800 -21.703500 2.835453 1.320896 4.945242 2.199115 2.347411 2.218201 -8.542287 1.007263 0.937464 7.866196 10.014794 1.465816 6.450501 11.365213 3.825700 -3.522100 5.309600 0.102200 7.532243 3.550794 -0.583910 -97.642611 0.329209 26.487117 13.340568 -15.624049 -2.684672 -2.064631 -3.068033 3.024166 18.469917 6.825539 3.722300 -7.125000 0.000000 0.000000 -5.827200 40.638000 0.629200 -10.800705 -6.020497 0.614751 105.625570 -6.046134 27.634951 -14.275935 21.555116 -4.137334 0.687989 2.424179 -17.764475 -16.918932 2.187693 0.001500 7.125000 0.000000 0.000000 6.474500 -29.952900 2.390800 
9.117136 17.685134 2.334743 -178.047021 1.192311 174.225931 8.047332 0.815223 -0.551892 -28.423360 -17.417958 8.852277 -0.926790 6.976579 21.099486 -3.883644 19.400485 -17.036053 0.167200 -2.634400 -7.262400 -9.935215 -0.020319 -2.850049 37.764592 13.659215 10.373321 -0.395019 -7.334431 20.164467 3.863672 -24.835655 -25.041652 -2.007400 8.881400 -25.425200 2.696858 1.316816 5.025028 2.178305 2.342976 2.224191 -8.524018 1.007672 0.914457 7.830043 9.992545 1.486154 6.486610 11.331633 3.833594 -3.497700 5.295300 0.092300 7.525207 3.547674 -0.582880 -97.612273 0.301765 26.386666 13.335104 -15.606510 -2.673725 -2.082185 -3.053163 3.132572 18.537347 6.791252 3.721800 -7.125000 0.000000 0.000000 -5.750800 40.598000 0.626600 -10.807553 -6.012884 0.615337 105.654104 -6.054103 27.704572 -14.284766 21.569156 -4.142608 0.701795 2.416990 -17.797914 -16.972296 2.327802 -0.048700 7.125000 0.000000 0.000000 6.413000 -29.795400 2.392100 
9.117704 17.685703 2.335993 -178.147212 1.173320 174.199057 8.051186 0.817107 -0.551956 -28.527722 -17.376885 8.895209 -0.938129 6.951135 21.021736 -3.891751 19.412822 -16.961561 0.168900 -2.647600 -7.299100 -9.937334 -0.024187 -2.855253 37.675046 13.642263 10.339763 -0.414827 -7.372541 20.261878 4.041239 -25.285421 -24.590692 -2.260300 9.388500 -27.018300 2.549922 1.311555 5.067942 2.170501 2.331737 2.223331 -8.463994 1.000363 0.888854 7.799166 9.981365 1.488912 6.516079 11.312561 3.852115 -3.479900 5.289900 0.097000 7.522649 3.544498 -0.582996 -97.606322 0.285001 26.335853 13.331206 -15.596544 -2.669675 -2.075471 -3.054977 3.180846 18.494179 6.829733 3.726500 -7.125000 0.000000 0.000000 -5.803100 40.637000 0.626700 -10.810679 -6.007255 0.613514 105.638596 -6.065441 27.794054 -14.293366 21.585200 -4.150751 0.705621 2.412427 -17.852595 -16.971046 2.402706 -0.075800 7.125000 0.000000 0.000000 6.405400 -29.710000 2.402300 
